<svg xmlns="http://www.w3.org/2000/svg" xmlns:xlink="http://www.w3.org/1999/xlink" version="1.1" id="svg-fee7" x="0px" y="0px" viewBox="0 0 511.88 511.88" style="enable-background:new 0 0 511.88 511.88;" xml:space="preserve" class="u-svg-content">
<g>
	<g>
		<g>
			<path d="M169.571,320.421c-5.567-28.92-33.521-47.854-62.443-42.293c-28.925,5.562-47.865,33.519-42.303,62.445     c5.562,28.925,33.519,47.865,62.445,42.303c28.925-5.562,47.865-33.519,42.303-62.445     C169.573,320.427,169.572,320.424,169.571,320.421z M123.248,361.914c0,0-0.001,0-0.001,0v-0.011     c-17.354,3.341-34.131-8.019-37.472-25.374c-3.341-17.354,8.019-34.131,25.374-37.472c17.354-3.341,34.131,8.019,37.472,25.374     c0.001,0.004,0.001,0.007,0.002,0.011C151.963,341.797,140.602,358.573,123.248,361.914z"></path>
			<path d="M509.742,308.431c-4.995-25.997-18.683-49.521-38.816-66.709l8.395-25.184c0.361-1.076,0.549-2.203,0.555-3.339v-32     c0-17.673-14.327-32-32-32h-75.339c-2.473-0.002-4.869-0.857-6.784-2.421l-71.125-59.211c-2.283-1.867-4.373-3.637-6.325-5.333     c-12.16-10.272-21.675-18.368-43.093-18.368H138.542c-17.673,0-32,14.327-32,32v53.333h-64c-11.782,0-21.333,9.551-21.333,21.333     v53.333c-0.002,1.655,0.382,3.287,1.12,4.768l10.389,20.789c-44.874,46.685-43.406,120.907,3.279,165.781     c46.685,44.874,120.907,43.406,165.781-3.279c26.23-27.289,37.673-65.561,30.726-102.769h46.837     c-11.911,63.661,30.04,124.925,93.702,136.836c63.661,11.911,124.925-30.04,136.836-93.702     C512.593,337.793,512.546,322.913,509.742,308.431z M296.814,117.199l38.4,32H223.875v-32H296.814z M135.342,424.837     c-52.063,10.023-102.394-24.058-112.417-76.122s24.058-102.394,76.122-112.417c52.063-10.023,102.394,24.058,112.417,76.122     c0.002,0.011,0.004,0.022,0.006,0.033C221.397,364.492,187.351,414.753,135.342,424.837z M285.454,287.866h-59.093     c-23.383-60.215-91.152-90.073-151.366-66.69c-9.077,3.525-17.678,8.169-25.604,13.826l-6.848-13.696v-50.773h74.667     c5.891,0,10.667-4.776,10.667-10.667v-64c0-5.891,4.776-10.667,10.667-10.667h106.667c12.192,0,17.173,3.2,26.091,10.667h-58.091     c-5.891,0-10.667,4.776-10.667,10.667v53.333c0,5.891,4.776,10.667,10.667,10.667h234.667c5.891,0,10.667,4.776,10.667,10.667     v30.272l-5.813,17.451c-55.95-32.212-127.419-12.968-159.631,42.982C290.15,277.024,287.595,282.36,285.454,287.866z      M412.675,424.837c-52.063,10.023-102.394-24.058-112.417-76.122c-10.023-52.063,24.058-102.394,76.122-112.417     c52.063-10.023,102.394,24.058,112.417,76.122c0.002,0.011,0.004,0.022,0.006,0.033     C498.731,364.492,464.684,414.753,412.675,424.837z"></path>
			<path d="M446.905,320.421c-5.567-28.92-33.521-47.854-62.443-42.293c-28.925,5.562-47.865,33.519-42.303,62.445     s33.519,47.865,62.445,42.303s47.865-33.519,42.303-62.445C446.906,320.427,446.905,320.424,446.905,320.421z M400.581,361.914     c0,0-0.001,0-0.001,0l0-0.011c-17.354,3.341-34.131-8.019-37.472-25.374c-3.341-17.354,8.019-34.131,25.374-37.472     c17.354-3.341,34.131,8.019,37.472,25.374c0.001,0.004,0.001,0.007,0.002,0.011C429.296,341.797,417.935,358.573,400.581,361.914     z"></path>
			<path d="M234.542,191.866h-21.333c-5.891,0-10.667,4.776-10.667,10.667s4.776,10.667,10.667,10.667h21.333     c5.891,0,10.667-4.776,10.667-10.667S240.433,191.866,234.542,191.866z"></path>
		</g>
	</g>
</g>
<g>
</g>
<g>
</g>
<g>
</g>
<g>
</g>
<g>
</g>
<g>
</g>
<g>
</g>
<g>
</g>
<g>
</g>
<g>
</g>
<g>
</g>
<g>
</g>
<g>
</g>
<g>
</g>
<g>
</g>
</svg>